<svg width="38" height="39" viewBox="0 0 38 39" fill="none" xmlns="http://www.w3.org/2000/svg">
<path d="M19 5.13777C18.6341 4.69344 18.1074 4.35925 17.5582 4.11005C16.6526 3.69915 15.5364 3.44509 14.5 3.28555V1.5V1H14H12H11.5V1.5V3.01159C11.4205 3.00886 11.3492 3.00677 11.2871 3.00517C11.1978 3.00287 11.1274 3.00158 11.079 3.00087L11.0231 3.00017L11.0083 3.00004L11.0042 3.00002L11.0031 3.00001L11.0027 3.00001L11.0026 3.00001L11.0026 3.00001L11 3.5L11.0025 3.00001L10.2848 2.9964L10.5301 3.67088L14.0077 13.2336L1.63055 26.8061L1.38376 27.0767L1.56736 27.3936L2 27.143C1.56736 27.3936 1.56748 27.3938 1.56762 27.3941L1.56802 27.3948L1.56924 27.3969L1.57333 27.4039L1.58813 27.4288C1.60093 27.4503 1.6196 27.4813 1.64411 27.5212C1.69313 27.6009 1.76553 27.7162 1.86107 27.862C2.05211 28.1536 2.33591 28.5675 2.71059 29.0629C3.45943 30.053 4.57421 31.3726 6.04039 32.693C8.96995 35.3314 13.3341 38 19 38C24.6659 38 29.0301 35.3314 31.9596 32.693C33.4258 31.3726 34.5406 30.053 35.2894 29.0629C35.6641 28.5675 35.9479 28.1536 36.1389 27.862C36.2345 27.7162 36.3069 27.6009 36.3559 27.5212C36.3804 27.4813 36.3991 27.4503 36.4119 27.4288L36.4267 27.4039L36.4308 27.3969L36.432 27.3948L36.4324 27.3941C36.4325 27.3938 36.4326 27.3936 36 27.143L36.4326 27.3936L36.6162 27.0767L36.3695 26.8061L23.9932 13.2336L27.4699 3.67084L27.7151 2.9964L26.9975 3.00001L27 3.5L26.9974 3.00001L26.9974 3.00001L26.9973 3.00001L26.9969 3.00001L26.9958 3.00002L26.9917 3.00004L26.9769 3.00017L26.921 3.00087C26.8726 3.00158 26.8022 3.00287 26.7129 3.00517C26.6508 3.00677 26.5795 3.00886 26.5 3.01159V1.5V1H26H24H23.5V1.5V3.28555C22.4636 3.44509 21.3474 3.69915 20.4418 4.11005C19.8926 4.35925 19.3659 4.69344 19 5.13777Z" fill="#E7CBC8" stroke="black"/>
<path d="M14 12H13.5V12.5V14.5V15H14H24H24.5V14.5V12.5V12H24H14Z" fill="#BBDDF5" stroke="black"/>
<path d="M16 14.5L16.4734 14.6609L15.6154 14.1805L16 14.5ZM16 14.5C15.6154 14.1805 15.6153 14.1806 15.6153 14.1807L15.615 14.181L15.6139 14.1822L15.6101 14.1869L15.5952 14.2049L15.5383 14.274C15.4887 14.3344 15.4165 14.4228 15.3253 14.5355C15.143 14.7607 14.8847 15.0831 14.5802 15.4727C13.9718 16.2511 13.1759 17.3011 12.4316 18.3819C11.6913 19.4568 10.9856 20.5855 10.5714 21.5158C10.3668 21.9753 10.2138 22.4288 10.1842 22.8233C10.1545 23.2199 10.2492 23.6987 10.7131 23.9469C11.1708 24.1917 11.623 24.0159 11.9441 23.7817C12.2659 23.547 12.5738 23.1787 12.8604 22.7625C13.4401 21.921 14.0339 20.7325 14.5628 19.5442C15.0946 18.3494 15.572 17.1289 15.9159 16.209C16.0881 15.7485 16.2272 15.3623 16.3233 15.0909C16.3714 14.9552 16.4088 14.8481 16.4342 14.7748L16.4632 14.6907L16.4707 14.6687L16.4727 14.663L16.4732 14.6615L16.4733 14.6611C16.4734 14.661 16.4734 14.6609 16 14.5ZM22.096 14.5L22.4806 14.1805L21.6226 14.6609L22.096 14.5ZM22.096 14.5C22.4806 14.1805 22.4806 14.1805 22.4807 14.1806L22.481 14.181L22.482 14.1822L22.4859 14.1869L22.5008 14.2049L22.5577 14.274C22.6073 14.3344 22.6795 14.4228 22.7707 14.5354C22.953 14.7606 23.2113 15.083 23.5158 15.4726C24.1242 16.2509 24.92 17.3008 25.6644 18.3817C26.4047 19.4566 27.1104 20.5853 27.5246 21.5158C27.7292 21.9755 27.8822 22.429 27.9118 22.8237C27.9415 23.2205 27.8469 23.6992 27.3832 23.9477L27.3827 23.948C26.9249 24.1926 26.4728 24.0165 26.1518 23.7823C25.83 23.5476 25.5222 23.1791 25.2355 22.7629C24.6559 21.9213 24.0621 20.7327 23.5332 19.5443C23.0014 18.3495 22.524 17.129 22.1801 16.209C22.0079 15.7485 21.8688 15.3623 21.7727 15.0909C21.7246 14.9552 21.6872 14.8481 21.6618 14.7748L21.6328 14.6907L21.6253 14.6687L21.6233 14.663L21.6228 14.6615L21.6227 14.6611C21.6226 14.661 21.6226 14.6609 22.096 14.5ZM19 14.5L19.4919 14.4106H18.5081L19 14.5ZM19 14.5C19.4919 14.4106 19.4919 14.4106 19.492 14.4108L19.4921 14.4112L19.4924 14.4129L19.4935 14.4192L19.4979 14.4435L19.5144 14.537C19.5288 14.6186 19.5495 14.7378 19.5751 14.8894C19.6262 15.1925 19.697 15.625 19.7756 16.1438C19.9327 17.1805 20.1217 18.5662 20.2479 19.9547C20.3735 21.3363 20.4397 22.7483 20.3417 23.8265C20.2932 24.3597 20.2012 24.8563 20.0294 25.2342C19.8584 25.6103 19.5386 26 19 26C18.4614 26 18.1415 25.6103 17.9706 25.2342C17.7988 24.8563 17.7068 24.3597 17.6583 23.8265C17.5603 22.7483 17.6265 21.3363 17.7521 19.9547C17.8783 18.5662 18.0673 17.1805 18.2244 16.1438C18.303 15.625 18.3738 15.1925 18.4249 14.8894C18.4505 14.7378 18.4712 14.6186 18.4856 14.537L18.5021 14.4435L18.5065 14.4192L18.5076 14.4129L18.5079 14.4112L18.508 14.4108C18.508 14.4106 18.5081 14.4106 19 14.5Z" fill="#E7CBC8" stroke="black"/>
</svg>
